<svg height="512pt" viewBox="0 0 512 512" width="512pt" xmlns="http://www.w3.org/2000/svg"><path d="m464.320312 274h-76.640624l-13.570313-114h103.78125zm0 0" fill="#002659"/><path d="m124.320312 442h-76.640624l-13.570313-114h103.78125zm0 0" fill="#00429b"/><path d="m294.320312 355h-76.640624l-13.570313-114h103.78125zm0 0" fill="#00429b"/><path d="m256 355h38.320312l13.570313-114h-51.890625zm0 0" fill="#002659"/><path d="m326 502h-140v-177h140zm0 0" fill="#fedc35"/><path d="m256 325h70v177h-70zm0 0" fill="#fdc500"/><path d="m496 502h-140v-258h140zm0 0" fill="#cf0050"/><path d="m491 190h-130v-75c0-24.8125 20.1875-45 45-45h40c24.8125 0 45 20.1875 45 45zm0 0" fill="#cf0050"/><path d="m156 502h-140v-90h140zm0 0" fill="#00eccf"/><path d="m151 358h-130v-75c0-24.8125 20.1875-45 45-45h40c24.8125 0 45 20.1875 45 45zm0 0" fill="#00eccf"/><path d="m321 271h-130v-75c0-24.8125 20.1875-45 45-45h40c24.8125 0 45 20.1875 45 45zm0 0" fill="#fedc35"/><path d="m276 151h-20v120h65v-75c0-24.8125-20.1875-45-45-45zm0 0" fill="#fdc500"/><path d="m256 181c-27.570312 0-50-22.429688-50-50s22.429688-50 50-50 50 22.429688 50 50-22.429688 50-50 50zm0 0" fill="#ffdfcf"/><path d="m306 131c0-27.570312-22.429688-50-50-50v100c27.570312 0 50-22.429688 50-50zm0 0" fill="#ffcebf"/><path d="m86 268c-27.570312 0-50-22.429688-50-50s22.429688-50 50-50 50 22.429688 50 50-22.429688 50-50 50zm0 0" fill="#ffdfcf"/><path d="m426 100c-27.570312 0-50-22.429688-50-50s22.429688-50 50-50 50 22.429688 50 50-22.429688 50-50 50zm0 0" fill="#ffcebf"/><path d="m0 482h512v30h-512zm0 0" fill="#00429b"/><path d="m256 482h256v30h-256zm0 0" fill="#002659"/></svg>